<?xml version="1.0" encoding="utf-8"?>
<!-- Generator: Adobe Illustrator 25.1.0, SVG Export Plug-In . SVG Version: 6.00 Build 0)  -->
<svg width="36px" height="24px" version="1.1" id="Ebene_1" xmlns="http://www.w3.org/2000/svg" xmlns:xlink="http://www.w3.org/1999/xlink" x="0px" y="0px"
	 viewBox="0 0 36 24" style="enable-background:new 0 0 36 24;" xml:space="preserve">
<style type="text/css">
	.st0{fill:#F2F0EC;}
	.st1{fill:#232020;}
</style>
<desc>Created with sketchtool.</desc>
<g id="Icons" transform="translate(-200.000000, -388.000000)">
	<g id="atoms-_x2F_-icon-24-_x2F_-payment-Nachname" transform="translate(200.000000, 388.000000)">
		<rect id="card_bg-copy-2" class="st0" width="36" height="24"/>
		<path id="NACHNAMELASTSCHRIFT" class="st1" d="M4.3,11V8.3h0L5.3,11H6V6.7H5.3v2.5h0L4.4,6.7H3.7V11H4.3z M7.5,11l0.1-1h0.8l0.1,1
			h0.7L8.5,6.7H7.5L6.7,11H7.5z M8.3,9.4H7.7L8,7.5h0L8.3,9.4z M11.2,11.1c0.7,0,1.1-0.5,1.1-1.1V9.5h-0.7V10c0,0.3-0.1,0.4-0.4,0.4
			c-0.3,0-0.4-0.2-0.4-0.5V7.7c0-0.3,0.1-0.5,0.4-0.5c0.2,0,0.4,0.2,0.4,0.5v0.3h0.7V7.8c0-0.6-0.4-1.2-1.1-1.2
			c-0.8,0-1.1,0.5-1.1,1.1v2.2C10,10.6,10.4,11.1,11.2,11.1z M14.1,11V9.1h0.8V11h0.7V6.7h-0.7v1.8h-0.8V6.7h-0.7V11H14.1z M23.8,11
			V9.1h0.8V11h0.7V6.7h-0.7v1.8h-0.8V6.7h-0.7V11H23.8z M17.4,11V8.3h0l0.9,2.7H19V6.7h-0.7v2.5h0l-0.9-2.5h-0.7V11H17.4z M20.5,11
			l0.1-1h0.8l0.1,1h0.7l-0.8-4.3h-0.9L19.8,11H20.5z M21.3,9.4h-0.6L21,7.5h0L21.3,9.4z M26.8,11V7.6h0l0.7,3.4h0.4l0.7-3.4h0V11
			h0.6V6.7h-1l-0.5,2.5h0l-0.5-2.5h-1V11H26.8z M32.3,11v-0.6H31V9.1h1V8.4h-1V7.3h1.2V6.7h-2V11H32.3z M4.2,17v-0.6H3.1v-3.7H2.3
			V17H4.2z M5.5,17l0.1-1h0.8l0.1,1h0.7l-0.8-4.3H5.5L4.7,17H5.5z M6.3,15.4H5.7L6,13.5h0L6.3,15.4z M9,17.1c0.7,0,1.2-0.4,1.2-1.1
			c0-1.2-1.5-1.5-1.5-2.3c0-0.3,0.1-0.4,0.4-0.4c0.2,0,0.4,0.1,0.4,0.5l0.7-0.1c-0.1-0.6-0.4-1.1-1-1.1c-0.7,0-1.2,0.4-1.2,1.1
			c0,1.2,1.5,1.5,1.5,2.3c0,0.3-0.2,0.4-0.4,0.4c-0.2,0-0.4-0.2-0.4-0.7l-0.7,0.1C7.9,16.5,8.3,17.1,9,17.1z M12.2,17v-3.7h0.7v-0.6
			h-2.2v0.6h0.7V17H12.2z M14.7,17.1c0.7,0,1.2-0.4,1.2-1.1c0-1.2-1.5-1.5-1.5-2.3c0-0.3,0.1-0.4,0.4-0.4c0.2,0,0.4,0.1,0.4,0.5
			l0.7-0.1c-0.1-0.6-0.4-1.1-1-1.1c-0.7,0-1.2,0.4-1.2,1.1c0,1.2,1.5,1.5,1.5,2.3c0,0.3-0.2,0.4-0.4,0.4c-0.2,0-0.4-0.2-0.4-0.7
			l-0.7,0.1C13.6,16.5,14,17.1,14.7,17.1z M17.9,17.1c0.7,0,1.1-0.5,1.1-1.1v-0.5h-0.7V16c0,0.3-0.1,0.4-0.4,0.4
			c-0.3,0-0.4-0.2-0.4-0.5v-2.2c0-0.3,0.1-0.5,0.4-0.5c0.2,0,0.4,0.2,0.4,0.5v0.3H19v-0.3c0-0.6-0.4-1.2-1.1-1.2
			c-0.8,0-1.1,0.5-1.1,1.1v2.2C16.7,16.6,17.1,17.1,17.9,17.1z M20.8,17v-1.9h0.8V17h0.7v-4.3h-0.7v1.8h-0.8v-1.8h-0.7V17H20.8z
			 M24.2,17v-1.8c0.1,0,0.3,0,0.4,0l0.5,1.8h0.8l-0.6-2c0.3-0.1,0.5-0.4,0.5-1.1c0-0.9-0.4-1.3-1.3-1.3h-1V17H24.2z M24.4,14.6h-0.3
			v-1.3h0.3c0.4,0,0.6,0.2,0.6,0.7S24.8,14.6,24.4,14.6z M27.6,17v-4.3h-0.7V17H27.6z M29.5,17v-1.9h1v-0.6h-1v-1.1h1.3v-0.6h-2.1
			V17H29.5z M33,17v-3.7h0.7v-0.6h-2.2v0.6h0.7V17H33z"/>
	</g>
</g>
</svg>
