<?xml version="1.0" encoding="UTF-8"?>
<svg width="72px" height="24px" viewBox="0 0 72 24" version="1.1" xmlns="http://www.w3.org/2000/svg" xmlns:xlink="http://www.w3.org/1999/xlink">
    <!-- Generator: sketchtool 64 (101010) - https://sketch.com -->
    <title>74B5B6B9-5689-40A3-9EF6-4D7CAC72151C</title>
    <desc>Created with sketchtool.</desc>
    <g id="*Styles" stroke="none" stroke-width="1" fill="none" fill-rule="evenodd">
        <g id="Icons" transform="translate(-24.000000, -452.000000)" fill-rule="nonzero">
            <g id="atoms-/-icon-24-/-shipping-DHL" transform="translate(24.000000, 452.000000)">
                <g id="dhl-logo-copy">
                    <rect id="Rectangle" fill="#FDCB2F" x="0" y="0" width="72" height="24"></rect>
                    <path d="M48.923897,14.3333333 C48.923897,14.3333333 48.4067717,15.0431602 48.1551659,15.385915 C47.267009,16.5919259 48.0525525,18 50.952976,18 L62.3158184,18 L65,14.3333333 L48.923897,14.3333333 Z M56.4786756,13.4166667 L61.3809524,7 L53.6195645,7 C53.6171629,7 48.7142857,13.4166667 48.7142857,13.4166667 L56.4786756,13.4166667 L56.4786756,13.4166667 Z M36.047619,18 L43.2628735,18 L46,14.3333333 L38.7853367,14.3333333 C38.782972,14.3333333 36.0482102,18 36.0482102,18 L36.047619,18 Z M44.4600131,7 L41.7857725,10.6798851 L38.6741054,10.6798851 L41.3466329,7 L34.3769325,7 L29.7142857,13.4166667 L46.7670668,13.4166667 L51.4285714,7 L44.4594421,7 L44.4600131,7 Z M26.0952381,18 L33.3119999,18 L36.047619,14.3333333 L28.8320394,14.3344909 C28.829675,14.3344909 26.0952381,18 26.0952381,18 L26.0952381,18 Z M18.7547718,14.5187866 C17.7086443,14.5187866 18.0242261,14.1098787 18.1991619,13.8850892 C18.5426404,13.4421056 19.1174293,12.6940899 19.455096,12.2582512 C19.7875321,11.8295575 19.7962498,11.5833333 19.116267,11.5833333 L12.9598067,11.5833333 L8,18 L20.0955585,18 C24.090022,18 26.3142053,15.4135475 27,14.5193362 L18.7541906,14.5193362 L18.7547718,14.5187866 Z M22.8263372,11.0454023 C22.4856711,11.5011494 21.9157443,12.2925287 21.5686285,12.7545977 C21.3921388,12.9896552 21.0737538,13.4166667 22.1285874,13.4166667 L27.6818553,13.4166667 L29.3271377,11.2097701 C30.3473769,9.84367816 29.4150893,7 25.7662681,7 L11.3967256,7 L8.9047619,10.3396552 L22.4844984,10.3396552 C23.1705214,10.3396552 23.1611399,10.5971264 22.8257509,11.045977 L22.8263372,11.0454023 Z" id="Shape" fill="#DC052D"></path>
                </g>
            </g>
        </g>
    </g>
</svg>