<?xml version="1.0" encoding="UTF-8"?>
<svg width="24px" height="24px" viewBox="0 0 24 24" version="1.1" xmlns="http://www.w3.org/2000/svg" xmlns:xlink="http://www.w3.org/1999/xlink">
    <!-- Generator: sketchtool 64 (101010) - https://sketch.com -->
    <title>EE51BB9F-59AA-434E-B2E3-F799DCFE8BFD</title>
    <desc>Created with sketchtool.</desc>
    <g id="*Styles" stroke="none" stroke-width="1" fill="none" fill-rule="evenodd">
        <g id="Icons" transform="translate(-24.000000, -516.000000)" fill-rule="nonzero">
            <g id="atoms-/-icon-24-/-social-/-facebook" transform="translate(24.000000, 516.000000)">
                <g id="facebook">
                    <path d="M13.9087719,23.7988304 C13.8105263,23.8288304 13.7076023,23.8688304 13.6093567,23.8988304 C13.7076023,23.8588304 13.805848,23.8288304 13.9087719,23.7988304 Z" id="Path" fill="#000000"></path>
                    <path d="M14.1473684,23.7700292 C14.1005848,23.7900292 14.0538012,23.8100292 14.0023392,23.8200292 C14.0538012,23.8100292 14.1005848,23.7900292 14.1473684,23.7700292 Z" id="Path" fill="#000000"></path>
                    <path d="M13.3380117,23.8816667 C13.2210526,23.9116667 13.1040936,23.9316667 12.9871345,23.9516667 C13.1040936,23.9416667 13.2210526,23.9116667 13.3380117,23.8816667 Z" id="Path" fill="#000000"></path>
                    <path d="M13.5719298,23.8615789 C13.5157895,23.8815789 13.4596491,23.8915789 13.4035088,23.9015789 C13.4549708,23.8915789 13.5157895,23.8815789 13.5719298,23.8615789 Z" id="Path" fill="#000000"></path>
                    <path d="M14.4748538,23.7018713 C14.4327485,23.7218713 14.3906433,23.7418713 14.348538,23.7618713 C14.3906433,23.7418713 14.4327485,23.7218713 14.4748538,23.7018713 Z" id="Path" fill="#000000"></path>
                    <path d="M15.2842105,23.5007018 C15.251462,23.5207018 15.2140351,23.5407018 15.1812865,23.5607018 C15.2140351,23.5407018 15.2467836,23.5207018 15.2842105,23.5007018 Z" id="Path" fill="#000000"></path>
                    <path d="M15.0362573,23.5661988 C14.9988304,23.5861988 14.9614035,23.6061988 14.9239766,23.6261988 C14.9660819,23.6161988 14.9988304,23.5961988 15.0362573,23.5661988 Z" id="Path" fill="#000000"></path>
                    <path d="M14.7181287,23.6504094 C14.6807018,23.6704094 14.6385965,23.6904094 14.6011696,23.7104094 C14.6385965,23.6804094 14.6807018,23.6604094 14.7181287,23.6504094 Z" id="Path" fill="#000000"></path>
                    <path d="M12.9824561,23.9297368 C12.9216374,23.9397368 12.8561404,23.9497368 12.7953216,23.9597368 C12.8561404,23.9497368 12.9216374,23.9397368 12.9824561,23.9297368 Z" id="Path" fill="#000000"></path>
                    <path d="M23.9532164,11.9766082 C23.9532164,5.36140351 18.5918129,0 11.9766082,0 C5.36140351,0 0,5.36140351 0,11.9766082 C0,18.5918129 5.36140351,23.9532164 11.9766082,23.9532164 C12.0467836,23.9532164 12.1169591,23.9532164 12.1871345,23.948538 L12.1871345,14.6292398 L9.61403509,14.6292398 L9.61403509,11.6304094 L12.1871345,11.6304094 L12.1871345,9.42222222 C12.1871345,6.86315789 13.7497076,5.46900585 16.0327485,5.46900585 C17.1274854,5.46900585 18.0678363,5.54853801 18.3391813,5.58596491 L18.3391813,8.2619883 L16.7672515,8.2619883 C15.5274854,8.2619883 15.2842105,8.85146199 15.2842105,9.71695906 L15.2842105,11.625731 L18.2549708,11.625731 L17.8666667,14.6245614 L15.2842105,14.6245614 L15.2842105,23.4900585 C20.2900585,22.0538012 23.9532164,17.445614 23.9532164,11.9766082 Z" id="Path" fill="#DC052D"></path>
                    <path d="M12.7672515,23.9411111 C12.6409357,23.9611111 12.5192982,23.9711111 12.3929825,23.9811111 C12.5192982,23.9711111 12.6409357,23.9611111 12.7672515,23.9411111 Z" id="Path" fill="#000000"></path>
                    <path d="M12.3883041,23.967807 C12.322807,23.967807 12.2573099,23.977807 12.1918129,23.977807 C12.2526316,23.977807 12.3181287,23.977807 12.3883041,23.967807 Z" id="Path" fill="#000000"></path>
                </g>
            </g>
        </g>
    </g>
</svg>