<?xml version="1.0" encoding="UTF-8"?>
<svg width="24px" height="24px" viewBox="0 0 24 24" version="1.1" xmlns="http://www.w3.org/2000/svg" xmlns:xlink="http://www.w3.org/1999/xlink">
    <!-- Generator: sketchtool 64 (101010) - https://sketch.com -->
    <title>E0255CE1-B2FE-45E3-A5E9-1AC7D7CD5DC1</title>
    <desc>Created with sketchtool.</desc>
    <g id="*Styles" stroke="none" stroke-width="1" fill="none" fill-rule="evenodd">
        <g id="Icons" transform="translate(-168.000000, -516.000000)" fill="#DC052D" fill-rule="nonzero">
            <g id="atoms-/-icon-24-/-social-/-snapchat" transform="translate(168.000000, 516.000000)">
                <g id="snapchat">
                    <path d="M12,0 C5.371875,0 0,5.371875 0,12 C0,18.628125 5.371875,24 12,24 C18.628125,24 24,18.628125 24,12 C24,5.371875 18.628125,0 12,0 Z M19.1859375,15.8765625 C19.1015625,16.078125 18.7125,16.3640625 17.353125,16.575 C17.240625,16.59375 17.1984375,16.7390625 17.1328125,17.0390625 C17.109375,17.1515625 17.0859375,17.259375 17.0484375,17.371875 C17.0203125,17.4703125 16.959375,17.5171875 16.85625,17.5171875 L16.8375,17.5171875 C16.7671875,17.5171875 16.6640625,17.503125 16.5328125,17.4796875 C16.303125,17.4328125 16.0453125,17.3953125 15.7171875,17.3953125 C15.525,17.3953125 15.328125,17.4140625 15.1265625,17.446875 C14.71875,17.5171875 14.371875,17.7609375 14.00625,18.01875 C13.471875,18.39375 12.9234375,18.7828125 12.065625,18.7828125 C12.028125,18.7828125 11.990625,18.7828125 11.953125,18.778125 C11.9296875,18.778125 11.90625,18.7828125 11.8828125,18.7828125 C11.025,18.7828125 10.4765625,18.39375 9.9421875,18.01875 C9.5765625,17.7609375 9.2296875,17.5125 8.821875,17.446875 C8.625,17.4140625 8.4234375,17.3953125 8.23125,17.3953125 C7.884375,17.3953125 7.6125,17.446875 7.415625,17.4890625 C7.29375,17.5125 7.190625,17.53125 7.1109375,17.53125 C7.0265625,17.53125 6.9375,17.5125 6.9,17.38125 C6.8671875,17.2640625 6.84375,17.15625 6.815625,17.04375 C6.7546875,16.7671875 6.7125,16.59375 6.5953125,16.575 C5.2359375,16.3640625 4.846875,16.078125 4.7625,15.8765625 C4.7484375,15.8484375 4.74375,15.8203125 4.74375,15.7875 C4.7390625,15.7078125 4.7953125,15.6421875 4.8703125,15.628125 C6.9609375,15.2859375 7.89375,13.1484375 7.9359375,13.059375 C7.9359375,13.059375 7.9359375,13.0546875 7.940625,13.05 C8.0671875,12.7921875 8.0953125,12.5671875 8.015625,12.3796875 C7.8703125,12.0421875 7.40625,11.8921875 7.096875,11.79375 C7.021875,11.7703125 6.9515625,11.746875 6.890625,11.7234375 C6.271875,11.4796875 6.2203125,11.2265625 6.24375,11.1 C6.2859375,10.884375 6.5765625,10.7296875 6.8109375,10.7296875 C6.8765625,10.7296875 6.9328125,10.7390625 6.9796875,10.7625 C7.25625,10.89375 7.509375,10.959375 7.725,10.959375 C8.025,10.959375 8.1515625,10.8328125 8.1703125,10.81875 C8.1609375,10.678125 8.1515625,10.528125 8.1421875,10.378125 C8.08125,9.3890625 8.0015625,8.165625 8.315625,7.4625 C9.253125,5.3625 11.2359375,5.1984375 11.821875,5.1984375 C11.8359375,5.1984375 12.0796875,5.19375 12.0796875,5.19375 L12.1125,5.19375 C12.6984375,5.19375 14.690625,5.3578125 15.628125,7.4578125 C15.9421875,8.15625 15.8625,9.3890625 15.8015625,10.3734375 L15.796875,10.415625 C15.7875,10.5515625 15.778125,10.6875 15.7734375,10.8140625 C15.7875,10.828125 15.909375,10.9453125 16.1765625,10.9546875 L16.1765625,10.9546875 C16.3828125,10.9453125 16.6171875,10.8796875 16.8796875,10.7578125 C16.9546875,10.7203125 17.0390625,10.715625 17.0953125,10.715625 C17.184375,10.715625 17.2734375,10.734375 17.34375,10.7625 L17.3484375,10.7625 C17.559375,10.8375 17.6953125,10.9828125 17.7,11.1375 C17.7046875,11.2828125 17.5921875,11.4984375 17.0484375,11.7140625 C16.9921875,11.7375 16.921875,11.7609375 16.8421875,11.784375 C16.5328125,11.8828125 16.0640625,12.0328125 15.9234375,12.3703125 C15.84375,12.553125 15.871875,12.778125 15.9984375,13.040625 C15.9984375,13.0453125 16.003125,13.0453125 16.003125,13.05 C16.040625,13.1390625 16.978125,15.2765625 19.06875,15.61875 C19.14375,15.6328125 19.2,15.6984375 19.1953125,15.778125 C19.2046875,15.815625 19.2,15.84375 19.1859375,15.8765625 Z" id="Shape"></path>
                </g>
            </g>
        </g>
    </g>
</svg>