<?xml version="1.0" encoding="UTF-8"?>
<svg width="24px" height="24px" viewBox="0 0 24 24" version="1.1" xmlns="http://www.w3.org/2000/svg" xmlns:xlink="http://www.w3.org/1999/xlink">
    <!-- Generator: sketchtool 64 (101010) - https://sketch.com -->
    <title>30854A4F-BCA6-41BA-BE67-FB023F7218E6</title>
    <desc>Created with sketchtool.</desc>
    <g id="*Styles" stroke="none" stroke-width="1" fill="none" fill-rule="evenodd">
        <g id="Icons" transform="translate(-72.000000, -516.000000)" fill="#DC052D" fill-rule="nonzero">
            <g id="atoms-/-icon-24-/-social-/-instagram" transform="translate(72.000000, 516.000000)">
                <g id="instagram">
                    <path d="M14.296875,12 C14.296875,13.2703125 13.2703125,14.296875 12,14.296875 C10.7296875,14.296875 9.703125,13.2703125 9.703125,12 C9.703125,10.7296875 10.7296875,9.703125 12,9.703125 C13.2703125,9.703125 14.296875,10.7296875 14.296875,12 Z" id="Path"></path>
                    <path d="M17.371875,7.9359375 C17.259375,7.6359375 17.0859375,7.3640625 16.85625,7.14375 C16.6359375,6.9140625 16.3640625,6.740625 16.0640625,6.628125 C15.8203125,6.534375 15.4546875,6.421875 14.784375,6.3890625 C14.0578125,6.35625 13.8375,6.346875 12,6.346875 C10.1578125,6.346875 9.9421875,6.3515625 9.215625,6.3890625 C8.5453125,6.421875 8.1796875,6.534375 7.9359375,6.628125 C7.6359375,6.740625 7.3640625,6.9140625 7.14375,7.14375 C6.9140625,7.3640625 6.740625,7.6359375 6.628125,7.9359375 C6.534375,8.1796875 6.421875,8.5453125 6.3890625,9.215625 C6.35625,9.9421875 6.346875,10.1578125 6.346875,12 C6.346875,13.8375 6.35625,14.0578125 6.3890625,14.784375 C6.421875,15.4546875 6.5296875,15.8203125 6.628125,16.0640625 C6.740625,16.3640625 6.9140625,16.6359375 7.14375,16.85625 C7.3640625,17.0859375 7.6359375,17.259375 7.9359375,17.371875 C8.1796875,17.465625 8.5453125,17.578125 9.215625,17.6109375 C9.9421875,17.64375 10.1578125,17.653125 12,17.653125 C13.8421875,17.653125 14.0578125,17.6484375 14.784375,17.6109375 C15.4546875,17.578125 15.8203125,17.4703125 16.0640625,17.371875 C16.6640625,17.1421875 17.1421875,16.6640625 17.371875,16.0640625 C17.465625,15.8203125 17.578125,15.4546875 17.6109375,14.784375 C17.64375,14.0578125 17.653125,13.8375 17.653125,12 C17.653125,10.1578125 17.6484375,9.9421875 17.6109375,9.215625 C17.578125,8.5453125 17.465625,8.1796875 17.371875,7.9359375 Z M12,15.5390625 C10.0453125,15.5390625 8.4609375,13.9546875 8.4609375,12 C8.4609375,10.0453125 10.0453125,8.4609375 12,8.4609375 C13.9546875,8.4609375 15.5390625,10.0453125 15.5390625,12 C15.5390625,13.9546875 13.9546875,15.5390625 12,15.5390625 Z M15.6796875,9.15 C15.225,9.15 14.8546875,8.7796875 14.8546875,8.325 C14.8546875,7.8703125 15.225,7.5 15.6796875,7.5 C16.134375,7.5 16.5046875,7.8703125 16.5046875,8.325 C16.5046875,8.7796875 16.134375,9.15 15.6796875,9.15 Z" id="Shape"></path>
                    <path d="M12,0 C5.371875,0 0,5.371875 0,12 C0,18.628125 5.371875,24 12,24 C18.628125,24 24,18.628125 24,12 C24,5.371875 18.628125,0 12,0 Z M18.8484375,14.840625 C18.815625,15.571875 18.6984375,16.0734375 18.5296875,16.5140625 C18.1734375,17.4375 17.4421875,18.1734375 16.5140625,18.5296875 C16.078125,18.6984375 15.5765625,18.815625 14.840625,18.8484375 C14.1046875,18.88125 13.8703125,18.890625 12,18.890625 C10.1296875,18.890625 9.8953125,18.88125 9.159375,18.8484375 C8.428125,18.815625 7.9265625,18.6984375 7.4859375,18.5296875 C7.0265625,18.35625 6.609375,18.084375 6.2671875,17.7328125 C5.915625,17.390625 5.64375,16.9734375 5.4703125,16.5140625 C5.3015625,16.078125 5.184375,15.5765625 5.1515625,14.840625 C5.11875,14.1046875 5.109375,13.8703125 5.109375,12 C5.109375,10.1296875 5.11875,9.8953125 5.1515625,9.159375 C5.184375,8.428125 5.3015625,7.9265625 5.4703125,7.4859375 C5.64375,7.0265625 5.915625,6.609375 6.2671875,6.2671875 C6.609375,5.915625 7.0265625,5.64375 7.4859375,5.4703125 C7.9265625,5.3015625 8.4234375,5.184375 9.159375,5.1515625 C9.8953125,5.11875 10.1296875,5.109375 12,5.109375 C13.8703125,5.109375 14.1046875,5.11875 14.840625,5.1515625 C15.571875,5.184375 16.0734375,5.3015625 16.5140625,5.4703125 C16.9734375,5.64375 17.390625,5.915625 17.7328125,6.2671875 C18.084375,6.609375 18.35625,7.0265625 18.5296875,7.4859375 C18.6984375,7.9265625 18.815625,8.4234375 18.8484375,9.159375 C18.88125,9.8953125 18.890625,10.1296875 18.890625,12 C18.890625,13.8703125 18.88125,14.1046875 18.8484375,14.840625 Z" id="Shape"></path>
                </g>
            </g>
        </g>
    </g>
</svg>