<?xml version="1.0" encoding="UTF-8"?>
<svg width="24px" height="24px" viewBox="0 0 24 24" version="1.1" xmlns="http://www.w3.org/2000/svg" xmlns:xlink="http://www.w3.org/1999/xlink">
    <!-- Generator: sketchtool 64 (101010) - https://sketch.com -->
    <title>B2939893-B9E5-46A6-94D9-1CB41F7C8A51</title>
    <desc>Created with sketchtool.</desc>
    <g id="*Styles" stroke="none" stroke-width="1" fill="none" fill-rule="evenodd">
        <g id="Icons" transform="translate(-120.000000, -516.000000)" fill="#DC052D" fill-rule="nonzero">
            <g id="atoms-/-icon-24-/-social-/-youtube" transform="translate(120.000000, 516.000000)">
                <g id="youtube">
                    <polygon id="Path" points="10.5046875 14.25 14.409375 12 10.5046875 9.75 10.5046875 14.25"></polygon>
                    <path d="M12,0 C5.371875,0 0,5.371875 0,12 C0,18.628125 5.371875,24 12,24 C18.628125,24 24,18.628125 24,12 C24,5.371875 18.628125,0 12,0 Z M19.5000289,12.0140625 C19.5000289,12.0140625 19.5000289,14.446875 19.190625,15.6234375 C19.0171875,16.265625 18.5109375,16.771875 17.86875,16.9453125 C16.6921875,17.25 12,17.25 12,17.25 C12,17.25 7.3171875,17.25 6.13125,16.9265625 C5.4890625,16.753125 4.9828125,16.246875 4.809375,15.6046875 C4.5,14.446875 4.5,12 4.5,12 C4.5,12 4.5,9.5671875 4.809375,8.3953125 C4.9828125,7.753125 5.503125,7.2328125 6.13125,7.059375 C7.3078125,6.75 12,6.75 12,6.75 C12,6.75 16.6921875,6.75 17.86875,7.0734375 C18.5109375,7.246875 19.0171875,7.753125 19.190625,8.3953125 C19.509375,9.5671875 19.5000289,12.0140625 19.5000289,12.0140625 Z" id="Shape"></path>
                </g>
            </g>
        </g>
    </g>
</svg>