<svg id="Ebene_1" data-name="Ebene 1" xmlns="http://www.w3.org/2000/svg" width="24px" height="24px" viewBox="1 1 22 22"><defs><style>.cls-1{fill:#dc052d;}.cls-2{fill:#fff;fill-rule:evenodd;}</style></defs><rect class="cls-1" x="1" y="1" width="22" height="22" rx="11"/><path class="cls-2" d="M13.79,3.88,8.26,19.51h4L17.78,3.88Z"/><path class="cls-2" d="M21,16.46a3.28,3.28,0,0,1-.54,1.8,3.23,3.23,0,0,1-5,.49,3.17,3.17,0,0,1-.88-1.65,3.23,3.23,0,0,1,.18-1.87A3.23,3.23,0,0,1,21,16.46Z"/><path class="cls-2" d="M9.29,3.88a4.54,4.54,0,0,1-5.06,3.2L3,10.57c6,.73,8.68-2.22,10.17-6.69Z"/></svg>