<?xml version="1.0" encoding="UTF-8"?>
<svg width="24px" height="24px" viewBox="0 0 24 24" version="1.1" xmlns="http://www.w3.org/2000/svg" xmlns:xlink="http://www.w3.org/1999/xlink">
    <!-- Generator: sketchtool 64 (101010) - https://sketch.com -->
    <title>54E955E5-7B48-40BB-85E6-4DE8756B8218</title>
    <desc>Created with sketchtool.</desc>
    <g id="*Styles" stroke="none" stroke-width="1" fill="none" fill-rule="evenodd">
        <g id="Icons" transform="translate(-216.000000, -516.000000)" fill="#DC052D" fill-rule="nonzero">
            <g id="atoms-/-icon-24-/-social-/-twitter" transform="translate(216.000000, 516.000000)">
                <g id="twitter">
                    <path d="M12,0 C5.371875,0 0,5.371875 0,12 C0,18.628125 5.371875,24 12,24 C18.628125,24 24,18.628125 24,12 C24,5.371875 18.628125,0 12,0 Z M17.4796875,9.35625 C17.484375,9.4734375 17.4890625,9.5953125 17.4890625,9.7125 C17.4890625,13.35 14.71875,17.55 9.6515625,17.55 L9.6515625,17.55 L9.6515625,17.55 C8.0953125,17.55 6.646875,17.0953125 5.428125,16.3125 C5.64375,16.3359375 5.8640625,16.35 6.084375,16.35 C7.3734375,16.35 8.5640625,15.909375 9.50625,15.16875 C8.3015625,15.1453125 7.284375,14.3484375 6.9328125,13.25625 C7.1015625,13.2890625 7.275,13.3078125 7.4484375,13.3078125 C7.7015625,13.3078125 7.9453125,13.275 8.175,13.209375 C6.9140625,12.95625 5.9671875,11.8453125 5.9671875,10.509375 C5.9671875,10.4953125 5.9671875,10.4859375 5.9671875,10.471875 C6.3375,10.678125 6.7640625,10.8046875 7.2140625,10.8140625 C6.4734375,10.321875 5.990625,9.478125 5.990625,8.521875 C5.990625,8.015625 6.1265625,7.5421875 6.365625,7.1390625 C7.725,8.8078125 9.7546875,9.9 12.0421875,10.0171875 C11.9953125,9.815625 11.971875,9.6046875 11.971875,9.3890625 C11.971875,7.8703125 13.2046875,6.6328125 14.728125,6.6328125 C15.5203125,6.6328125 16.2375,6.965625 16.7390625,7.5046875 C17.3671875,7.3828125 17.9578125,7.153125 18.4875,6.834375 C18.28125,7.4765625 17.8453125,8.015625 17.278125,8.3578125 C17.8359375,8.2921875 18.365625,8.1421875 18.8578125,7.921875 C18.4828125,8.484375 18.01875,8.9671875 17.4796875,9.35625 Z" id="Shape"></path>
                </g>
            </g>
        </g>
    </g>
</svg>