<?xml version="1.0" encoding="UTF-8"?>
<svg xmlns="http://www.w3.org/2000/svg" xmlns:xlink="http://www.w3.org/1999/xlink" width="76px" height="20px" viewBox="0 0 77 20" version="1.1">
<g id="surface1">
<path style=" stroke:none;fill-rule:nonzero;fill:rgb(100%,100%,100%);fill-opacity:1;" d="M 8.90625 0 L 0.527344 0 L 0.527344 20 Z M 8.90625 0 "/>
<path style=" stroke:none;fill-rule:nonzero;fill:rgb(100%,100%,100%);fill-opacity:1;" d="M 14.769531 0 L 23.144531 0 L 23.144531 20 Z M 14.769531 0 "/>
<path style=" stroke:none;fill-rule:nonzero;fill:rgb(100%,100%,100%);fill-opacity:1;" d="M 11.835938 7.414062 L 17.140625 20.140625 L 13.652344 20.140625 L 12.117188 16.082031 L 8.207031 16.082031 Z M 11.835938 7.414062 "/>
<path style=" stroke:none;fill-rule:nonzero;fill:rgb(100%,100%,100%);fill-opacity:1;" d="M 36.824219 12.726562 L 37.800781 15.523438 C 37.800781 15.664062 37.941406 15.664062 37.941406 15.664062 L 39.894531 15.664062 C 40.035156 15.664062 40.035156 15.664062 40.035156 15.523438 L 36.125 4.617188 C 36.125 4.476562 36.125 4.476562 35.988281 4.476562 L 33.613281 4.476562 C 33.613281 4.476562 33.472656 4.476562 33.472656 4.617188 C 33.472656 5.175781 33.335938 5.316406 33.335938 5.59375 L 29.84375 15.523438 C 29.84375 15.664062 29.84375 15.664062 29.984375 15.664062 L 31.660156 15.664062 C 31.800781 15.664062 31.800781 15.664062 31.800781 15.523438 L 32.777344 12.726562 Z M 33.335938 10.910156 C 33.894531 9.371094 34.589844 7.414062 34.730469 6.292969 C 35.011719 7.550781 35.847656 9.789062 36.265625 10.910156 Z M 33.335938 10.910156 "/>
<path style=" stroke:none;fill-rule:nonzero;fill:rgb(100%,100%,100%);fill-opacity:1;" d="M 45.0625 15.804688 C 46.039062 15.804688 47.15625 15.664062 48.273438 15.105469 C 48.410156 15.105469 48.410156 14.964844 48.410156 14.964844 C 48.410156 14.683594 48.273438 14.265625 48.273438 13.847656 L 48.273438 3.636719 C 48.273438 3.636719 48.273438 3.496094 48.132812 3.496094 L 46.316406 3.496094 C 46.179688 3.496094 46.179688 3.496094 46.179688 3.636719 L 46.179688 7.132812 C 45.898438 7.132812 45.621094 7.132812 45.480469 7.132812 C 42.546875 7.132812 40.734375 9.089844 40.734375 11.609375 C 40.59375 14.40625 42.546875 15.804688 45.0625 15.804688 Z M 46.179688 13.984375 C 45.898438 14.125 45.480469 14.125 45.199219 14.125 C 43.804688 14.125 42.6875 13.425781 42.6875 11.46875 C 42.6875 9.789062 43.804688 8.8125 45.339844 8.8125 C 45.621094 8.8125 45.898438 8.8125 46.179688 8.949219 Z M 46.179688 13.984375 "/>
<path style=" stroke:none;fill-rule:nonzero;fill:rgb(100%,100%,100%);fill-opacity:1;" d="M 54.273438 7.132812 C 51.761719 7.132812 50.085938 9.089844 50.085938 11.46875 C 50.085938 13.566406 51.34375 15.804688 54.136719 15.804688 C 56.507812 15.804688 58.183594 13.984375 58.183594 11.46875 C 58.183594 9.089844 56.789062 7.132812 54.273438 7.132812 Z M 54.136719 8.8125 C 55.53125 8.8125 56.230469 10.070312 56.230469 11.46875 C 56.230469 13.148438 55.390625 14.125 54.273438 14.125 C 53.019531 14.125 52.179688 13.007812 52.179688 11.46875 C 52.179688 9.929688 53.019531 8.8125 54.136719 8.8125 Z M 54.136719 8.8125 "/>
<path style=" stroke:none;fill-rule:nonzero;fill:rgb(100%,100%,100%);fill-opacity:1;" d="M 60.136719 3.636719 C 60.136719 3.636719 60 3.636719 60.136719 3.636719 L 60 15.382812 C 60 15.382812 60 15.523438 60.136719 15.523438 C 60.976562 15.804688 61.8125 15.945312 62.652344 15.945312 C 65.164062 15.945312 67.675781 14.40625 67.675781 11.1875 C 67.675781 8.949219 66.140625 7.132812 63.628906 7.132812 C 63.070312 7.132812 62.511719 7.273438 62.09375 7.414062 L 62.09375 3.777344 C 62.09375 3.636719 62.09375 3.636719 61.953125 3.636719 Z M 65.582031 11.328125 C 65.582031 13.148438 64.328125 14.125 62.929688 14.125 C 62.652344 14.125 62.371094 14.125 62.09375 13.984375 L 62.09375 9.089844 C 62.371094 8.949219 62.652344 8.949219 63.210938 8.949219 C 64.605469 8.949219 65.582031 9.789062 65.582031 11.328125 Z M 65.582031 11.328125 "/>
<path style=" stroke:none;fill-rule:nonzero;fill:rgb(100%,100%,100%);fill-opacity:1;" d="M 74.515625 12.027344 C 75.355469 12.027344 76.050781 12.027344 76.191406 11.886719 C 76.332031 11.886719 76.332031 11.886719 76.332031 11.75 C 76.332031 11.609375 76.472656 11.1875 76.472656 10.769531 C 76.472656 9.089844 75.496094 7.132812 72.980469 7.132812 C 70.46875 7.132812 68.933594 9.230469 68.933594 11.609375 C 68.933594 13.707031 70.050781 15.945312 73.121094 15.945312 C 74.238281 15.945312 75.074219 15.804688 75.632812 15.382812 C 75.632812 15.382812 75.773438 15.246094 75.773438 15.246094 L 75.773438 13.847656 C 75.773438 13.707031 75.773438 13.707031 75.632812 13.847656 C 74.9375 14.125 74.238281 14.265625 73.539062 14.265625 C 71.863281 14.265625 71.027344 13.285156 71.027344 12.167969 L 74.515625 12.167969 Z M 71.167969 10.488281 C 71.304688 9.648438 71.863281 8.8125 72.980469 8.8125 C 74.238281 8.8125 74.65625 9.929688 74.65625 10.351562 C 74.65625 10.351562 74.65625 10.488281 74.65625 10.488281 C 74.515625 10.488281 74.378906 10.488281 73.679688 10.488281 Z M 71.167969 10.488281 "/>
</g>
</svg>
